<?xml version="1.0" encoding="UTF-8"?>
<svg width="15px" height="15px" viewBox="0 0 15 15" version="1.1" xmlns="http://www.w3.org/2000/svg" xmlns:xlink="http://www.w3.org/1999/xlink">
    <!-- Generator: Sketch 41.2 (35397) - http://www.bohemiancoding.com/sketch -->
    <title>icn-github</title>
    <desc>Created with Sketch.</desc>
    <defs></defs>
    <g id="final" stroke="none" stroke-width="1" fill="none" fill-rule="evenodd">
        <g id="me" transform="translate(-131.000000, -639.000000)">
            <g id="icn-github" transform="translate(130.000000, 638.000000)">
                <rect id="bg" x="0" y="0" width="16" height="16"></rect>
                <path d="M15,8.66475823 C15,11.6077076 13.1393199,14.1039974 10.5582421,14.987734 C10.2280164,15.0529495 10.1115121,14.8453246 10.1115121,14.6669802 C10.1115121,14.4484417 10.1195918,13.7292079 10.1195918,12.8385504 C10.1195918,12.2162082 9.91108304,11.8097426 9.6780745,11.6050458 C11.1256466,11.4389459 12.6464574,10.8762292 12.6464574,8.31632111 C12.6464574,7.58883552 12.394683,6.99257949 11.9774049,6.52675447 C12.0451702,6.35799272 12.267232,5.68161479 11.9125065,4.76327403 C11.9125065,4.76327403 11.368038,4.58492959 10.1276715,5.44657279 C9.60900597,5.29857353 9.05254822,5.22510627 8.5,5.22244441 C7.94745178,5.22510627 7.39099403,5.29857353 6.87232848,5.44657279 C5.63196199,4.58492959 5.08488712,4.76327403 5.08488712,4.76327403 C4.73146477,5.68161479 4.95482978,6.35799272 5.02259513,6.52675447 C4.60531697,6.99257949 4.35223946,7.58883552 4.35223946,8.31632111 C4.35223946,10.8693084 5.87018325,11.4418739 7.31384578,11.6090385 C7.12827299,11.7764694 6.96042343,12.069806 6.9007378,12.499696 C6.5295922,12.6713858 5.58843578,12.9657872 5.00904206,11.9465621 C5.00904206,11.9465621 4.66500261,11.3077163 4.01367336,11.2606014 C4.01367336,11.2606014 3.37850355,11.2523497 3.96884398,11.6657361 C3.96884398,11.6657361 4.39550503,11.8704329 4.69080557,12.6394435 C4.69080557,12.6394435 5.07133406,13.9368327 6.8804082,13.533029 C6.88301456,14.0901557 6.88848791,14.5093982 6.88848791,14.6669802 C6.88848791,14.8439937 6.77068046,15.0486905 6.44566743,14.987734 C3.86198324,14.1069254 2,11.6090385 2,8.66475823 C2,4.98314344 4.9100004,2 8.5,2 C12.0899996,2 15,4.98314344 15,8.66475823 L15,8.66475823 Z" id="Stroke-52" stroke="#2A2A36" stroke-width="0.525"></path>
            </g>
        </g>
    </g>
</svg>