<?xml version="1.0" encoding="UTF-8"?>
<svg width="16px" height="14px" viewBox="0 0 16 14" version="1.1" xmlns="http://www.w3.org/2000/svg" xmlns:xlink="http://www.w3.org/1999/xlink">
    <!-- Generator: Sketch 41.2 (35397) - http://www.bohemiancoding.com/sketch -->
    <title>icn-twitter</title>
    <desc>Created with Sketch.</desc>
    <defs></defs>
    <g id="final" stroke="none" stroke-width="1" fill="none" fill-rule="evenodd">
        <g id="me" transform="translate(-56.000000, -641.000000)">
            <g id="icn-twitter" transform="translate(56.000000, 640.000000)">
                <rect id="bg" x="0" y="0" width="16" height="16"></rect>
                <path d="M7.79651724,5.67878301 C7.79651724,5.67878301 4.98831034,6.35119327 1.85472414,2.56919706 C1.85472414,2.56919706 0.633827586,5.04849184 2.75024138,6.5610411 C2.75024138,6.5610411 2.05868966,6.68714918 1.48831034,6.2672043 C1.48831034,6.2672043 1.24403448,8.41004472 3.76741379,9.25043294 L2.42437931,9.25043294 C2.42437931,9.25043294 2.79103448,10.9733285 5.15124138,11.3514035 C5.15124138,11.3514035 4.17462069,12.6959748 1,12.6119858 C1,12.6119858 2.79103448,14.0405461 5.51789655,13.998427 C5.51789655,13.998427 10.563931,14.2506431 12.9651724,8.36767639 C13.5555862,6.92092265 13.4942759,5.55267493 13.4534828,4.88001544 L15,3.45170438 L13.4534828,3.74579041 C13.4534828,3.74579041 14.5116897,2.9475213 14.634069,2.19112205 L12.9246207,2.90540219 C12.9246207,2.90540219 11.3468301,1.50003439 9.46517241,2.19112205 C9.46493103,2.19112205 7.47113793,2.61131616 7.79651724,5.67878301 Z" id="Shape" stroke="#2A2A36" stroke-width="0.584821125"></path>
            </g>
        </g>
    </g>
</svg>