<?xml version="1.0" encoding="UTF-8"?>
<svg width="130px" height="130px" viewBox="0 0 130 130" version="1.1" xmlns="http://www.w3.org/2000/svg" xmlns:xlink="http://www.w3.org/1999/xlink">
    <!-- Generator: Sketch 41.2 (35397) - http://www.bohemiancoding.com/sketch -->
    <title>logo-samihah</title>
    <desc>Created with Sketch.</desc>
    <defs></defs>
    <g id="assets" stroke="none" stroke-width="1" fill="none" fill-rule="evenodd">
        <g id="logo-samihah" stroke="#2A2A36" fill="#2A2A36">
            <path d="M43.046361,40.298686 C36.4918791,37.1400604 35.8672451,31.6240785 35.8672451,29.9845648 C35.8672451,28.3450511 35.6106981,22.9741152 43.5953654,18.4481846 C51.5800326,13.9222541 65.0399952,12.4985984 74.6925656,13.14936 C84.3451359,13.8001216 87.8224757,15.9271047 93.2555954,21.7962018 C98.6887151,27.6652988 99.012299,39.4206153 99.012299,39.4206153 L99.012299,69.9563601 C99.012299,75.3823337 105.708333,75.3823337 105.265455,68.4984333 C104.822577,61.6145329 105.708333,62.1988466 105.708333,62.1988466 L109.519944,62.3595685 L109.519944,68.4984333 C109.519944,68.4984333 109.519944,73.9948815 104.374698,78.0910345 C99.2294523,82.1871876 95.8027133,82.60125 89.1754004,82.60125 C82.5480876,82.60125 76.5776556,80.3050742 73.5760836,75.3823337 C70.5745116,70.4595931 66.5162425,61.0768877 56.730993,54.7434903 C46.9457436,48.410093 41.1839326,54.6599944 40.4995032,56.5642916 C39.8150737,58.4685889 36.269828,66.5365203 49.5063318,69.9563601 C62.7428355,73.3762 69.935503,77.1103206 74.6925656,83.1412273 C79.4496282,89.172134 79.0843091,95.6255698 76.3420002,102.034041 C73.5996914,108.442513 70.2186186,112.236913 61.8290938,114.992798 C49.3892981,119.07916 34.6833592,115.718535 34.6833592,115.718535 L21.1864375,111.946224 L21,94.8882657 C21,94.8882657 29.8676778,104.847309 36.8579006,108.423912 C43.8481234,112.000516 48.4447325,112.703177 52.232769,111.471844 C56.0208055,110.240511 61.2667738,105.53701 58.9988834,99.7868464 C56.730993,94.0366826 44.5416218,94.8882657 36.3021597,90.7559254 C28.0626977,86.6235851 21.5475314,79.4771203 21.1864375,68.4984333 C20.8253436,57.5197463 33.1517956,49.8216946 39.8150737,47.5126223 C46.4783518,45.20355 56.730993,45.9356661 61.8290938,47.5126223 C66.9271945,49.0895785 70.5745116,50.2254173 70.5745116,50.2254173 C70.5745116,50.2254173 75.1713687,31.7035128 73.0510586,24.9363518 C70.9307484,18.1691908 67.5908641,15.2625908 61.8290938,15.6688444 C56.0673235,16.075098 34.1914903,28.0714484 38.2149161,26.3380694 C42.238342,24.6046905 52.232769,20.2228128 57.3453081,25.6386886 C62.4578472,31.0545645 57.93831,38.622519 55.5010618,40.298686 C53.0638137,41.974853 49.6008429,43.4573116 43.046361,40.298686 Z" id="Path-2"></path>
        </g>
    </g>
</svg>