<?xml version="1.0" encoding="UTF-8"?>
<svg width="130px" height="130px" viewBox="0 0 130 130" version="1.1" xmlns="http://www.w3.org/2000/svg" xmlns:xlink="http://www.w3.org/1999/xlink">
    <!-- Generator: Sketch 41.2 (35397) - http://www.bohemiancoding.com/sketch -->
    <title>logo-samihah</title>
    <desc>Created with Sketch.</desc>
    <defs></defs>
    <g id="assets" stroke="none" stroke-width="1" fill="none" fill-rule="evenodd">
        <g id="logo-samihah" fill="#353F49">
            <g id="Logo" transform="translate(-4.000000, 3.000000)">
                <path d="M42.3648546,6.38254378 C43.7363266,7.02248568 70.9127547,23.4071704 72.3663128,24.0854145 C73.819871,24.7636586 115.680948,68.4998955 129.807008,82.6456828 C141.788097,94.6435035 114.122657,134.204943 117.531598,126.889713 C118.89139,123.971743 121.197955,120.625732 121.385873,118.618843 C123.416269,96.9350371 40.9933826,5.74260189 42.3648546,6.38254378 Z" id="Path-2-Copy-8" transform="translate(87.591762, 67.082101) scale(-1, 1) rotate(65.000000) translate(-87.591762, -67.082101) "></path>
                <g id="Group-Copy" transform="translate(41.583937, 93.817088) rotate(-2.000000) translate(-41.583937, -93.817088) translate(1.583937, 54.317088)">
                    <path d="M27.3248895,7.72691638 C27.3248895,7.72691638 19.8374546,11.1635659 18.7098752,18.2985869 C17.5822957,25.4336079 23.1602578,25.6354909 27.4756702,26.0165072 C31.7910827,26.3975234 39.6842194,24.0063753 49.5467991,26.6838023 C53.3949022,27.7284595 63.9284313,31.8094631 63.9284313,43.811886 C63.9284313,53.1530058 58.0870282,69.8105693 34.9977469,70.5519279 C33.3018374,70.6063807 38.6358186,70.5925798 46.4533941,67.6523859 C53.5808699,64.9717389 60.8300529,52.9135173 50.4650841,44.2253842 C40.1001152,35.5372511 33.2271168,43.2374461 25.4249892,40.0443408 C17.6228616,36.8512355 16.0138532,30.3828758 16.0138532,30.3828758 C16.0138532,30.3828758 14.1299853,23.7356849 17.724879,16.9382397 C21.3197726,10.1407945 27.3248895,7.72691638 27.3248895,7.72691638 Z" id="Path-3-Copy" transform="translate(39.724473, 39.145289) rotate(47.000000) translate(-39.724473, -39.145289) "></path>
                    <ellipse id="Oval-2-Copy-3" cx="59.205483" cy="15.168025" rx="4.53675233" ry="4.6286992"></ellipse>
                    <ellipse id="Oval-2-Copy-2" cx="11.1067841" cy="50.9882134" rx="4.53675233" ry="4.6286992"></ellipse>
                </g>
            </g>
        </g>
    </g>
</svg>